<?xml version="1.0" standalone="no"?>
<!DOCTYPE svg PUBLIC "-//W3C//DTD SVG 20010904//EN"
 "http://www.w3.org/TR/2001/REC-SVG-20010904/DTD/svg10.dtd">
<svg version="1.0" xmlns="http://www.w3.org/2000/svg"
 width="512.000000pt" height="512.000000pt" viewBox="0 0 512.000000 512.000000"
 preserveAspectRatio="xMidYMid meet">
<metadata>
Created by potrace 1.14, written by Peter Selinger 2001-2017
</metadata>
<g transform="translate(0.000000,512.000000) scale(0.100000,-0.100000)"
fill="#000000" stroke="none">
<path d="M2405 4684 c-163 -24 -175 -26 -283 -61 -48 -15 -90 -26 -94 -25 -5
1 -8 -2 -8 -8 0 -5 -9 -10 -20 -10 -11 0 -20 -4 -20 -10 0 -6 -3 -9 -7 -8 -14
4 -123 -51 -123 -62 0 -5 -4 -9 -9 -8 -12 4 -161 -93 -161 -104 0 -4 -6 -8
-12 -8 -21 0 -221 -213 -272 -291 -28 -41 -52 -76 -56 -79 -5 -5 -76 -148
-103 -210 -8 -19 -23 -60 -32 -90 -9 -30 -19 -62 -22 -70 -3 -8 -7 -22 -8 -30
-1 -8 -6 -31 -10 -50 -13 -54 -15 -71 -18 -127 -1 -29 -4 -53 -7 -53 -8 0 -4
-116 4 -129 4 -6 4 -11 -1 -11 -4 0 -7 -21 -5 -47 1 -27 3 -54 3 -60 -3 -131
-3 -220 -1 -228 1 -5 1 -14 0 -20 -1 -5 -3 -21 -3 -34 -2 -19 -11 -27 -47 -39
-25 -8 -48 -19 -51 -24 -3 -5 -9 -9 -13 -9 -34 6 -159 -100 -212 -180 -32 -47
-76 -129 -70 -129 2 0 -3 -21 -13 -47 -15 -41 -17 -85 -17 -290 1 -156 -3
-243 -9 -243 -7 0 -7 -3 0 -8 6 -4 10 -20 10 -37 0 -16 -4 -33 -10 -37 -7 -5
-7 -8 0 -8 6 0 10 -16 10 -35 0 -19 -4 -35 -10 -35 -7 0 -7 -3 0 -8 6 -4 10
-20 10 -37 0 -16 -4 -33 -10 -37 -7 -5 -7 -8 0 -8 6 0 10 -16 10 -35 0 -19 -4
-35 -10 -35 -7 0 -7 -3 0 -8 6 -4 10 -20 10 -37 0 -16 -4 -33 -10 -37 -7 -5
-7 -8 0 -8 6 0 10 -16 10 -35 0 -19 -4 -35 -10 -35 -7 0 -7 -3 0 -8 6 -4 10
-20 10 -37 0 -16 -4 -33 -10 -37 -7 -5 -7 -8 0 -8 10 0 11 -660 1 -686 -3 -8
-2 -14 2 -14 4 0 7 -28 7 -63 1 -54 4 -84 17 -148 2 -9 21 -51 41 -92 58 -118
152 -209 272 -265 114 -53 66 -52 1520 -51 1285 0 1353 1 1419 19 38 10 81 24
95 31 39 20 116 72 119 81 2 4 8 8 13 8 12 0 49 37 49 50 0 6 4 10 9 10 4 0
24 24 44 54 37 55 71 126 60 126 -3 0 -1 6 4 12 12 15 25 77 28 129 1 20 5 41
9 48 4 6 4 11 -1 11 -4 0 -8 404 -9 898 0 694 -3 906 -13 937 -7 22 -13 48
-14 58 -1 9 -4 17 -8 17 -4 0 -12 15 -20 33 -7 17 -25 50 -40 72 -29 43 -126
146 -134 142 -2 -1 -14 6 -25 16 -11 9 -27 17 -35 17 -8 0 -15 4 -15 8 0 5
-25 17 -55 27 -30 11 -56 22 -56 25 -1 3 -3 111 -5 240 -3 215 -6 278 -19 380
-2 19 -7 57 -10 85 -3 27 -11 53 -18 57 -9 6 -8 8 3 8 10 0 11 3 4 8 -6 4 -14
21 -18 37 -3 17 -8 35 -9 40 -2 6 -10 30 -17 55 -8 25 -31 80 -52 123 -21 43
-38 80 -38 83 0 6 -82 138 -90 144 -4 3 -11 13 -16 22 -33 62 -249 277 -312
312 -9 5 -26 18 -36 28 -11 10 -26 18 -33 18 -7 0 -13 5 -13 11 0 5 -4 8 -9 5
-5 -4 -11 -2 -13 2 -4 11 -98 62 -114 62 -8 0 -14 5 -14 11 0 5 -4 7 -10 4 -5
-3 -10 -2 -10 3 0 8 -35 23 -62 26 -3 1 -10 4 -14 9 -4 4 -18 7 -31 7 -12 0
-23 3 -23 8 0 6 -100 34 -170 47 -14 3 -36 7 -50 10 -108 21 -275 25 -385 9z
m202 -568 c3 -2 16 -1 29 4 13 5 24 6 24 2 0 -4 14 -9 32 -10 17 -2 37 -7 43
-12 7 -5 15 -7 18 -4 3 4 14 3 24 -1 10 -5 25 -9 33 -10 20 -2 68 -21 103 -40
16 -8 34 -15 41 -15 7 0 21 -9 31 -20 10 -11 20 -18 23 -16 2 3 9 1 16 -4 60
-49 76 -60 87 -60 7 0 10 -3 6 -6 -6 -6 16 -34 27 -34 10 0 75 -75 76 -86 0
-7 6 -14 13 -17 12 -4 108 -167 114 -191 1 -6 9 -31 19 -56 9 -25 18 -58 21
-75 2 -16 6 -37 10 -45 3 -8 7 -40 10 -70 6 -77 9 -500 3 -501 -17 -4 -1700
-3 -1701 1 -5 23 -3 493 2 520 4 19 10 51 13 71 3 20 10 49 16 65 6 16 12 31
12 34 2 19 64 152 91 194 38 60 210 240 220 229 4 -3 9 2 13 11 3 9 12 16 19
16 8 0 20 6 27 13 7 7 16 14 21 15 4 1 21 9 37 17 17 9 30 12 30 8 0 -5 4 -2
9 6 5 8 15 16 23 17 22 5 51 13 98 27 25 8 53 13 63 11 9 -1 17 1 17 5 0 5 15
7 33 6 17 -1 41 2 51 5 21 7 95 5 103 -4z"/>
</g>
</svg>
